Simulation
nRows=40
nColumns=15
endheader
time  TH_x TH_y TH_z SC_y  SC_z  SC_x  AC_y  AC_z  AC_x  GH_y  GH_z  GH_yy  EL_x  PS_y
5.362  0.000000  0.000000  0.000000  -28.978425278578825  8.340976858166885  19.54011912451195  56.54419984375948  17.585724141448964  10.705275283532982  -6.22281261399755  63.25031083889808  7.549546131742784  13.590630373391445  120.000000
5.4156200000000005  0.000000  0.000000  0.000000  -29.07891843748346  8.280325151052562  20.14597162146663  56.73241713837044  17.023278161776574  10.142900691726606  -5.996743851755859  63.5209522684927  7.08267707511868  13.647486848316406  120.000000
5.46924  0.000000  0.000000  0.000000  -28.95785393886061  8.152096339965441  20.333616680147532  56.9394355962745  16.471093712347486  9.35544882734289  -5.724724834867104  63.51976226921755  6.714614062093774  13.51658499415265  120.000000
5.52286  0.000000  0.000000  0.000000  -28.623618180786945  7.95845693905269  20.084370167687414  57.17525370026493  15.91351140024374  8.372804987185598  -5.427928302421872  63.197741898193335  6.404156268805  13.255375329746805  120.000000
5.57648  0.000000  0.000000  0.000000  -28.09887711830084  7.693153002416646  19.391690392932023  57.44324175091098  15.332131382888468  7.2494204356980685  -5.126349894356181  62.511512996095774  6.098043043543849  12.947809240388606  120.000000
5.6301000000000005  0.000000  0.000000  0.000000  -27.420691032715297  7.344322799117614  18.25862298302344  57.731752048034124  14.710934694907152  6.058435824080938  -4.824400187104686  61.43873422762402  5.759646308610871  12.672354164635351  120.000000
5.68372  0.000000  0.000000  0.000000  -26.638854619360167  6.898943243036022  16.697603318574597  58.01072284353023  14.043605364836981  4.885432370516544  -4.503323802362659  59.99005670319878  5.390710345570203  12.476500589278885  120.000000
5.73734  0.000000  0.000000  0.000000  -25.810295168831455  6.348985498661915  14.732634416630814  58.23526683633526  13.34062655855193  3.820305730622901  -4.125580148836955  58.20832334850687  5.037311271907074  12.368453804853067  120.000000
5.79096  0.000000  0.000000  0.000000  -24.9906188808589  5.6963279233282655  12.403911032975438  58.35534989528001  12.631476061546937  2.947919580993618  -3.647017565038527  56.15382647599711  4.777073890850875  12.327906507015864  120.000000
5.8445800000000006  0.000000  0.000000  0.000000  -24.22478503650743  4.95822400390735  9.771775804702578  58.329473843912126  11.959086042059578  2.335128794015815  -3.0299926842751703  53.883442817782225  4.6969947498394955  12.323339286671018  120.000000
5.8982  0.000000  0.000000  0.000000  -23.54046510342767  4.168142558123788  6.920035221068089  58.1349893043618  11.368717892708563  2.0196840114872114  -2.252906394672656  51.433884959659494  4.872357516909763  12.325624787787513  120.000000
5.95182  0.000000  0.000000  0.000000  -22.945251013926693  3.373490887790443  3.9539705631586624  57.77245605141235  10.897835949924387  2.003041973533424  -1.3153515145817376  48.81474106634232  5.353392680020534  12.314107478841468  120.000000
6.00544  0.000000  0.000000  0.000000  -22.4287826686713  2.6286799483244514  0.9940805806733182  57.26310594407303  10.572388311343849  2.2509778784854184  -0.23941263973849644  46.01264326059405  6.161338756369185  12.276953007010128  120.000000
6.059060000000001  0.000000  0.000000  0.000000  -21.967768374090987  1.9871393131088082  -1.8338821184461553  56.6441297447455  10.409429948455767  2.702681710688786  0.9358957065043884  43.00642219732829  7.289267313543295  12.21102277813939  120.000000
6.11268  0.000000  0.000000  0.000000  -21.536253874392347  1.4949413790386523  -4.4121428630881585  55.96478875427909  10.42117740423763  3.285037957772212  2.1685865051382662  39.79006557119067  8.70261950680488  12.124609515290068  120.000000
6.1663  0.000000  0.000000  0.000000  -21.119197047627416  1.1841577800901208  -6.645528653646432  55.28062981864575  10.614510503495557  3.9272284072104986  3.428252224577758  36.39464053601886  10.342890479360397  12.03920455634013  120.000000
6.21992  0.000000  0.000000  0.000000  -20.72466961936496  1.065079531792166  -8.47357167312018  54.64671395132333  10.982578960079216  4.573614717862388  4.707252566212481  32.89680435004901  12.134808843982402  11.986667832277611  120.000000
6.273540000000001  0.000000  0.000000  0.000000  -20.386679631556383  1.1212231578611753  -9.874427658522226  54.10528900367598  11.499418886402585  5.19267173757126  6.017374192468011  29.407018933157605  14.0014106765391  12.002730196988656  120.000000
6.32716  0.000000  0.000000  0.000000  -20.147503162658225  1.3158989435956676  -10.867385016192733  53.68786325070222  12.120170682800731  5.764700044138206  7.37288197855173  26.037829181168313  15.883776099782208  12.12114261638138  120.000000
6.38078  0.000000  0.000000  0.000000  -20.030730933192576  1.5997478705124903  -11.497298561693427  53.42229080749213  12.785028070826158  6.266675014771861  8.774917492478636  22.868724197536903  17.751097462889724  12.370784794400699  120.000000
6.4344  0.000000  0.000000  0.000000  -20.02868217650259  1.9219046322649485  -11.807716987182078  53.32141022341617  13.440123773505798  6.681402374841005  10.198308284135777  19.936592729412663  19.60037564863791  12.773437973020808  120.000000
6.488020000000001  0.000000  0.000000  0.000000  -20.10724237152365  2.243841008330202  -11.834271108696814  53.37924529389625  14.058181612661883  7.002694639497116  11.600081485669792  17.247223492867658  21.434268093174275  13.336225664146484  120.000000
6.54164  0.000000  0.000000  0.000000  -20.228064934755142  2.542739176379653  -11.607342815677443  53.567678399435735  14.636101829711455  7.235540246363585  12.945233569362623  14.785629643801933  23.2245930085801  14.039690529040328  120.000000
6.59526  0.000000  0.000000  0.000000  -20.37027498286791  2.8095285989760246  -11.157720192539974  53.83823784435405  15.184089191858357  7.395498351055843  14.255411532154646  12.526570425479047  24.859911002903207  14.828589327973832  120.000000
6.64888  0.000000  0.000000  0.000000  -20.533070464117113  3.0490859020657677  -10.52181516510901  54.14343741927209  15.71312902839685  7.491607640298616  15.70551363569956  10.44435420106814  26.05999384224776  15.61875921887326  120.000000
6.702500000000001  0.000000  0.000000  0.000000  -20.731620736965038  3.2757230321815567  -9.738974197656406  54.443393000258375  16.225888906806112  7.521755521091258  17.69911080290797  8.516799404082246  26.32549976831923  16.31902978996193  120.000000
6.75612  0.000000  0.000000  0.000000  -20.98456162483726  3.5040945678736612  -8.844484009243681  54.69843608616797  16.716629341301797  7.4857568859520836  20.897877733164716  6.7285646678129725  24.939278323667715  16.858103664829606  120.000000
6.80974  0.000000  0.000000  0.000000  -21.296186889736916  3.7436470595377846  -7.865873451954826  54.875339484124716  17.174963448558177  7.392067616585536  26.35678615276002  5.078968117900998  20.855079669056618  17.20791899777646  120.000000
6.86336  0.000000  0.000000  0.000000  -21.648244172077316  3.996942506308991  -6.8237661154247515  54.95746438871768  17.589339515167296  7.255576488484667  36.10866924888874  3.5934024689496264  12.1125359466582  17.387532684632053  120.000000
6.916980000000001  0.000000  0.000000  0.000000  -22.00360016747305  4.260692273693769  -5.734363071166076  54.95229451557166  17.94827469696029  7.094654242603772  55.30678053127464  2.3642547006388788  -6.330219325637677  17.447712491678246  120.000000
6.9706  0.000000  0.000000  0.000000  -22.316899878657964  4.526877570760514  -4.6121036980061625  54.892112459263785  18.237810802885047  6.928627037906286  93.97544605037773  1.7152526232018952  -44.38249461917972  17.450926671960747  120.000000
7.02422  0.000000  0.000000  0.000000  -22.553326580782702  4.783153948173865  -3.4729183347169905  54.817517206862  18.44374283379521  6.770758115170707  136.291738698276  2.0634804809532556  -86.13397036361947  17.44910968478759  120.000000
7.07784  0.000000  0.000000  0.000000  -22.70517465604463  5.019562820945832  -2.3350343419189326  54.754958777171105  18.55841451104676  6.623685788274774  158.2421336258776  2.9828847305513584  -107.5248131053927  17.467298545048543  120.000000
7.131460000000001  0.000000  0.000000  0.000000  -22.79156220835827  5.23371446909816  -1.2169180550709484  54.71281560543985  18.581637585741557  6.48264425241936  168.9699668786508  4.021876168332747  -117.6852588849259  17.506780915926907  120.000000
7.18508  0.000000  0.000000  0.000000  -22.842328798338553  5.427122143308063  -0.13676477030108225  54.69114939180931  18.518584199613112  6.339640010661702  175.02814257183405  5.0308731859149125  -123.17293394923584  17.558396868722248  120.000000
7.2387  0.000000  0.000000  0.000000  -22.88464156071307  5.6014498620624265  0.8873397224399083  54.68854746047521  18.377082775410774  6.186849723366911  178.82131833937592  5.951040922389857  -126.40245534591304  17.611933069652203  120.000000
7.29232  0.000000  0.000000  0.000000  -22.93615983008232  5.756409252298957  1.8366855795529773  54.70534236938705  18.16574479514462  6.01845156614172  -178.6648497058053  6.747615379788734  -128.36802088117236  17.66077894771498  120.000000
7.345940000000001  0.000000  0.000000  0.000000  -23.00326030295641  5.889051470388049  2.691091730560261  54.744956428645786  17.892617069969276  5.830673425422644  -176.96669383470748  7.3944404716752725  -129.5386398382136  17.702512608628652  120.000000
7.39956  0.000000  0.000000  0.000000  -23.083282461885247  5.994374580987182  3.428978374994742  54.81277036773894  17.564270814435144  5.621533160567155  -175.8472082995308  7.86983398080711  -130.15420457188998  17.73828718557931  120.000000
7.45318  0.000000  0.000000  0.000000  -23.167906384300768  6.06659720327697  4.028199113208679  54.91383779985101  17.185308364343037  5.3912236140056145  -175.17778388401112  8.154930829952088  -130.3442749555095  17.77172678435769  120.000000
